HIERARCHY
ROOT Hips
{
	OFFSET 0.000000 0.000000 0.000000
	CHANNELS 6 Xposition Yposition Zposition Zrotation Yrotation Xrotation 
	JOINT LHipJoint
	{
		OFFSET 0.000000 0.000000 0.000000
		CHANNELS 3 Zrotation Yrotation Xrotation
		JOINT LeftUpLeg
		{
			OFFSET 1.363060 -1.794630 0.839290
			CHANNELS 3 Zrotation Yrotation Xrotation
			JOINT LeftLeg
			{
				OFFSET 2.448110 -6.726130 0.000000
				CHANNELS 3 Zrotation Yrotation Xrotation
				JOINT LeftFoot
				{
					OFFSET 2.562200 -7.039590 0.000000
					CHANNELS 3 Zrotation Yrotation Xrotation
					JOINT LeftToeBase
					{
						OFFSET 0.157640 -0.433110 2.322550
						CHANNELS 3 Zrotation Yrotation Xrotation
						End Site
						{
							OFFSET 0.000000 0.000000 0.000000
						}
					}
				}
			}
		}
	}
	JOINT RHipJoint
	{
		OFFSET 0.000000 0.000000 0.000000
		CHANNELS 3 Zrotation Yrotation Xrotation
		JOINT RightUpLeg
		{
			OFFSET -1.305520 -1.794630 0.839290
			CHANNELS 3 Zrotation Yrotation Xrotation
			JOINT RightLeg
			{
				OFFSET -2.542530 -6.985550 0.000000
				CHANNELS 3 Zrotation Yrotation Xrotation
				JOINT RightFoot
				{
					OFFSET -2.568260 -7.056230 0.000000
					CHANNELS 3 Zrotation Yrotation Xrotation
					JOINT RightToeBase
					{
						OFFSET -0.164730 -0.452590 2.363150
						CHANNELS 3 Zrotation Yrotation Xrotation
						End Site
						{
							OFFSET 0.000000 0.000000 0.000000
						}
					}
				}
			}
		}
	}
}
MOTION
Frames: 13
Frame Time: 0.008333
6.124920 16.575886 -1.708083 -171.795641 28.671446 -158.093979 -8.597272 2.125337 4.534123 -23.996419 -7.263911 -28.512459 -3.019701 -0.944488 17.552039 2.207916 5.142292 -20.999212 178.212900 0.000000 -4.657400 10.554304 -5.240488 -2.113474 8.672513 -21.982467 -5.231513 1.189845 -2.376328 32.793473 0.230021 22.146389 31.018452 13.305800 0.000000 -86.601201
6.254121 16.474575 -1.817065 -171.838139 28.226330 -158.109122 -8.490475 2.157263 4.727512 -23.909625 -8.354545 -29.008092 -2.924333 -0.739623 20.022609 2.447757 5.743807 -22.658397 177.839200 0.000000 -10.063900 10.749061 -5.151861 -2.261588 7.841269 -22.808433 -6.131215 0.937284 -2.460733 35.628586 0.062447 20.997363 31.605289 12.850100 0.000001 -86.391000
6.378026 16.375006 -1.925397 -171.936615 27.803816 -158.148253 -8.393310 2.192926 4.887420 -23.893199 -9.343557 -29.639834 -2.834278 -0.494901 22.820914 2.659742 6.232321 -24.265296 177.471300 -0.000000 -14.237000 10.940869 -5.028669 -2.416326 6.947714 -23.573189 -7.123514 0.657309 -2.544751 38.572757 -0.147676 18.428774 31.978931 11.464700 0.000000 -86.360000
6.495483 16.279499 -2.033512 -172.075744 27.398139 -158.201439 -8.314934 2.223278 5.008980 -23.936056 -10.202996 -30.331764 -2.747099 -0.231755 25.767499 2.840272 6.616276 -25.779522 177.123300 0.000000 -17.247400 11.117574 -4.865637 -2.565627 6.037027 -24.185193 -8.183783 0.365481 -2.627847 41.580927 -0.407962 14.520146 31.973296 9.182700 -0.000000 -85.801000
6.605487 16.190531 -2.142000 -172.239040 27.004736 -158.256438 -8.261644 2.240084 5.090398 -24.020918 -10.919500 -31.006224 -2.662084 0.027329 28.677666 2.990913 6.913800 -27.181340 176.801899 -0.000000 -19.301600 11.269011 -4.661686 -2.696000 5.155466 -24.559824 -9.291959 0.080977 -2.710334 44.595260 -0.726124 9.540910 31.440177 6.208099 -0.000000 -84.222500
6.707560 16.110439 -2.251509 -172.415919 26.624041 -158.300767 -8.235246 2.238313 5.133153 -24.131559 -11.494297 -31.594954 -2.580959 0.262865 31.384226 3.116724 7.149396 -28.459867 176.507999 0.000000 -20.587900 11.389963 -4.421952 -2.792413 4.340973 -24.627268 -10.438582 -0.178350 -2.794076 47.550081 -1.103650 3.931736 30.314533 2.894400 -0.000000 -81.616500
6.801494 16.041250 -2.362746 -172.592297 26.259346 -158.317746 -8.237290 2.216004 5.140947 -24.244420 -11.935683 -32.051391 -2.506561 0.460997 33.757522 3.223289 7.344393 -29.611434 176.239900 -0.000000 -21.253300 11.477567 -4.159440 -2.840042 3.627300 -24.336230 -11.630666 -0.402287 -2.883742 50.403513 -1.526312 -1.765994 28.611939 -0.339200 0.000000 -77.641300
6.887162 15.984412 -2.476547 -172.749685 25.915653 -158.289004 -8.269062 2.173440 5.118847 -24.332883 -12.256853 -32.348534 -2.441803 0.613345 35.708602 3.315568 7.515091 -30.637481 175.994900 -0.000000 -21.443900 11.530305 -3.891015 -2.825537 3.042033 -23.658217 -12.878401 -0.590804 -2.981027 53.101589 -1.969317 -7.075398 26.489787 -3.143600 -0.000001 -72.817000
6.964926 15.940720 -2.593663 -172.871911 25.597788 -158.199580 -8.331364 2.112756 5.073265 -24.368878 -12.473091 -32.475809 -2.389038 0.716336 37.187333 3.396434 7.669374 -31.539183 175.772000 -0.000000 -21.280901 11.547462 -3.633239 -2.740746 2.601243 -22.592990 -14.192659 -0.751606 -3.084949 55.608823 -2.398459 -11.651576 24.138213 -5.310800 0.000000 -67.457300
7.035235 15.910253 -2.714773 -172.942315 25.307326 -158.039926 -8.424853 2.036545 5.010521 -24.326991 -12.598912 -32.431135 -2.349177 0.769816 38.176366 3.466190 7.806606 -32.314881 175.573300 0.000000 -20.874100 11.527849 -3.397830 -2.583096 2.309746 -21.162383 -15.571566 -0.894320 -3.189381 57.886324 -2.782539 -15.328424 21.764378 -6.796099 0.000000 -62.303900
7.098934 15.892550 -2.840425 -172.948833 25.041451 -157.808220 -8.549475 1.947868 4.936602 -24.186320 -12.647249 -32.216757 -2.321780 0.776214 38.684817 3.522567 7.917778 -32.959127 175.404700 0.000000 -20.325200 11.470573 -3.191124 -2.356574 2.160374 -19.409696 -16.999883 -1.025914 -3.286190 59.902087 -3.096527 -18.061308 19.515949 -7.657799 0.000000 -57.829400
7.156876 15.886621 -2.970953 -172.888010 24.792771 -157.514567 -8.702595 1.850396 4.856924 -23.940686 -12.633627 -31.831282 -2.305450 0.739844 38.739467 3.562097 7.990598 -33.463773 175.274300 0.000000 -19.727300 11.377137 -3.014001 -2.073239 2.124859 -17.404904 -18.452215 -1.148820 -3.369107 61.637299 -3.322487 -19.865024 17.451006 -7.987600 0.000000 -54.295600
7.210093 15.891193 -3.106656 -172.762178 24.550799 -157.171924 -8.881051 1.748341 4.777325 -23.590139 -12.574799 -31.279157 -2.297559 0.666623 38.383958 3.580259 8.010495 -33.817364 175.191800 -0.000000 -19.158800 11.249991 -2.864605 -1.748096 2.173113 -15.228865 -19.901476 -1.261290 -3.433819 63.076054 -3.451061 -20.793431 15.560754 -7.881300 0.000000 -51.663400
